<?xml version="1.0" encoding="UTF-8"?>
<svg id="Camada_1" xmlns="http://www.w3.org/2000/svg" xmlns:xlink="http://www.w3.org/1999/xlink" version="1.1" viewBox="0 0 1000 1000">
  <!-- Generator: Adobe Illustrator 29.8.2, SVG Export Plug-In . SVG Version: 2.1.1 Build 3)  -->
  <defs>
    <style>
      .st0 {
        fill: none;
      }

      .st1 {
        fill: #f0eee9;
      }

      .st2 {
        clip-path: url(#clippath);
      }
    </style>
    <clipPath id="clippath">
      <rect class="st0" x="3.08" y="3.09" width="993.83" height="993.83"/>
    </clipPath>
  </defs>
  <g class="st2">
    <path class="st1" d="M383.51,648.01c-6.78,0-13.61-3.52-20.8-10.71-7.93-7.93-11.4-15.42-10.6-22.89,1.57-14.79,19.61-26.44,40.5-39.93,28.76-18.57,61.36-39.62,61.36-74.48s-32.59-55.9-61.35-74.48c-20.89-13.49-38.93-25.14-40.51-39.93-.8-7.47,2.67-14.96,10.6-22.89,7.93-7.93,15.41-11.4,22.89-10.6,14.79,1.57,26.44,19.62,39.93,40.51,18.57,28.76,39.62,61.36,74.48,61.36s55.9-32.6,74.48-61.36c13.49-20.89,25.14-38.93,39.93-40.51,7.48-.79,14.96,2.68,22.89,10.6s11.4,15.42,10.6,22.89c-1.57,14.79-19.61,26.44-40.51,39.93-28.76,18.57-61.35,39.62-61.35,74.48s32.59,55.9,61.35,74.48c20.89,13.49,38.93,25.14,40.51,39.93.79,7.47-2.67,14.96-10.6,22.89-7.93,7.93-15.41,11.4-22.89,10.6-14.79-1.57-26.44-19.61-39.93-40.51-18.57-28.76-39.62-61.35-74.48-61.35s-55.9,32.6-74.48,61.35c-13.49,20.89-25.14,38.93-39.93,40.51-.69.07-1.39.11-2.08.11M500,541.68c37.22,0,59.91,35.12,78.13,63.35,12.89,19.95,24.01,37.18,36.73,38.54,6.08.65,12.41-2.41,19.35-9.35,6.94-6.94,10-13.27,9.35-19.35-1.35-12.72-18.58-23.85-38.53-36.73-28.22-18.23-63.35-40.91-63.35-78.14s35.12-59.91,63.35-78.13c19.95-12.88,37.19-24.01,38.54-36.73.65-6.08-2.41-12.41-9.35-19.35-6.94-6.94-13.29-10.02-19.35-9.35-12.72,1.35-23.85,18.58-36.73,38.54-18.23,28.22-40.91,63.35-78.13,63.35s-59.91-35.12-78.13-63.35c-12.89-19.95-24.01-37.18-36.73-38.54-6.05-.65-12.41,2.41-19.35,9.35-6.94,6.94-10,13.27-9.35,19.35,1.35,12.72,18.59,23.85,38.54,36.73,28.22,18.23,63.35,40.91,63.35,78.13s-35.13,59.91-63.35,78.14c-19.95,12.88-37.18,24.01-38.54,36.73-.65,6.08,2.41,12.41,9.35,19.35,6.94,6.94,13.26,9.99,19.35,9.35,12.72-1.35,23.85-18.59,36.73-38.54,18.23-28.22,40.91-63.35,78.13-63.35"/>
    <path class="st1" d="M628.97,668.36c-.23,0-.47,0-.71,0-16.41-.45-30.4-16.04-46.6-34.1-21.3-23.74-45.43-50.64-81.65-50.64s-60.36,26.91-81.65,50.64c-16.2,18.06-30.19,33.65-46.6,34.1-9.06.24-17.74-4.08-26.88-13.22-9.14-9.14-13.46-17.93-13.22-26.87.45-16.41,16.04-30.4,34.1-46.6,23.74-21.3,50.65-45.43,50.65-81.65s-26.91-60.36-50.64-81.65c-18.06-16.2-33.66-30.19-34.1-46.6-.24-8.95,4.08-17.74,13.22-26.88,9.14-9.14,17.95-13.44,26.88-13.22,16.41.45,30.4,16.04,46.6,34.1,21.3,23.74,45.43,50.64,81.65,50.64s60.36-26.91,81.65-50.64c16.2-18.06,30.19-33.65,46.6-34.1,8.88-.23,17.74,4.08,26.88,13.22,9.14,9.14,13.46,17.93,13.22,26.88-.45,16.41-16.04,30.4-34.1,46.6-23.74,21.29-50.64,45.43-50.64,81.65s26.91,60.36,50.65,81.65c18.06,16.2,33.65,30.19,34.1,46.6.24,8.94-4.08,17.73-13.22,26.87-8.9,8.9-17.46,13.23-26.17,13.23M500,579.15c38.21,0,63.06,27.69,84.97,52.13,15.51,17.29,28.91,32.23,43.4,32.62,7.67.23,15.37-3.69,23.6-11.92,8.23-8.23,12.12-15.94,11.92-23.6-.39-14.49-15.33-27.89-32.62-43.4-24.43-21.92-52.13-46.76-52.13-84.98s27.69-63.06,52.13-84.97c17.29-15.51,32.23-28.91,32.62-43.4.21-7.65-3.69-15.37-11.92-23.6-8.23-8.22-15.93-12.16-23.6-11.91-14.5.39-27.89,15.33-43.4,32.62-21.92,24.43-46.76,52.13-84.97,52.13s-63.06-27.69-84.98-52.13c-15.51-17.29-28.91-32.23-43.4-32.62-7.6-.24-15.37,3.69-23.6,11.91-8.23,8.23-12.12,15.95-11.92,23.6.39,14.49,15.33,27.89,32.62,43.4,24.43,21.92,52.13,46.76,52.13,84.97s-27.69,63.06-52.13,84.98c-17.29,15.51-32.23,28.91-32.62,43.4-.21,7.65,3.69,15.37,11.92,23.6,8.23,8.22,15.99,12.14,23.6,11.92,14.49-.39,27.89-15.33,43.4-32.62,21.92-24.43,46.76-52.13,84.98-52.13"/>
    <path class="st1" d="M639.97,689.35c-17.67,0-34.24-13.26-52.37-27.77-23.66-18.93-50.48-40.4-87.6-40.4s-63.94,21.46-87.6,40.4c-28.84,23.08-53.76,43.01-85.37,11.39-31.62-31.62-11.69-56.53,11.39-85.37,18.94-23.66,40.4-50.48,40.4-87.6s-21.46-63.94-40.4-87.6c-23.08-28.84-43.01-53.75-11.39-85.37,31.62-31.62,56.53-11.69,85.37,11.39,23.66,18.94,50.48,40.4,87.6,40.4s63.94-21.46,87.6-40.4c28.84-23.07,53.75-43.02,85.37-11.39,31.62,31.62,11.69,56.53-11.39,85.37-18.94,23.66-40.4,50.48-40.4,87.6s21.46,63.94,40.4,87.6c23.08,28.84,43.01,53.75,11.39,85.37-11.75,11.74-22.57,16.37-33,16.38M360.19,315.16c-9.47,0-19.17,4.35-29.92,15.11-28.73,28.72-11.76,49.93,11.73,79.28,19.4,24.25,41.4,51.74,41.4,90.46s-21.99,66.21-41.4,90.46c-23.49,29.35-40.46,50.56-11.73,79.28,28.73,28.73,49.93,11.75,79.28-11.73,24.25-19.4,51.74-41.4,90.46-41.4s66.21,21.99,90.46,41.4c29.35,23.48,50.56,40.46,79.28,11.73,28.73-28.72,11.76-49.93-11.73-79.28-19.4-24.25-41.4-51.74-41.4-90.46s21.99-66.21,41.4-90.46c23.49-29.35,40.46-50.56,11.73-79.28-28.73-28.73-49.93-11.76-79.28,11.73-24.25,19.41-51.74,41.4-90.46,41.4s-66.21-21.99-90.46-41.4c-18.36-14.69-33.53-26.83-49.36-26.83"/>
    <path class="st1" d="M648.71,711.02c-18.65,0-36.96-10.33-56.86-21.55-25.53-14.4-54.48-30.72-91.85-30.72s-66.32,16.32-91.85,30.72c-34.41,19.4-64.14,36.16-98.96,1.34-34.82-34.82-18.06-64.54,1.34-98.96,14.4-25.54,30.72-54.48,30.72-91.85s-16.32-66.32-30.72-91.85c-19.4-34.41-36.16-64.14-1.34-98.96,34.82-34.82,64.55-18.06,98.96,1.34,25.53,14.4,54.48,30.72,91.85,30.72s66.32-16.32,91.85-30.72c34.41-19.4,64.13-36.16,98.96-1.34,34.82,34.82,18.06,64.54-1.34,98.96-14.4,25.54-30.72,54.48-30.72,91.85s16.32,66.32,30.72,91.85c19.4,34.41,36.16,64.14,1.34,98.96-14.69,14.69-28.49,20.2-42.1,20.2M500,654.07c38.61,0,68.12,16.64,94.15,31.32,34.1,19.23,61.04,34.42,93.35,2.11,32.31-32.31,17.12-59.24-2.11-93.35-14.68-26.04-31.32-55.55-31.32-94.15s16.64-68.12,31.32-94.15c19.23-34.1,34.42-61.04,2.11-93.35-32.31-32.31-59.24-17.12-93.35,2.11-26.04,14.68-55.55,31.32-94.15,31.32s-68.12-16.64-94.15-31.32c-34.1-19.23-61.04-34.41-93.35-2.11-32.31,32.31-17.12,59.24,2.11,93.35,14.68,26.04,31.32,55.55,31.32,94.15s-16.64,68.12-31.32,94.15c-19.23,34.1-34.42,61.04-2.11,93.35,32.3,32.31,59.24,17.13,93.35-2.11,26.04-14.68,55.55-31.32,94.15-31.32"/>
    <path class="st1" d="M654.13,733.76c-19.46,0-39.2-7.54-60.43-15.66-26.69-10.2-56.94-21.77-93.7-21.77s-67.01,11.57-93.7,21.77c-40.96,15.66-76.33,29.18-114.95-9.44-38.62-38.62-25.1-73.99-9.44-114.95,10.2-26.69,21.77-56.95,21.77-93.7s-11.57-67.01-21.77-93.7c-15.66-40.96-29.18-76.33,9.44-114.95,38.63-38.62,73.99-25.1,114.95-9.44,26.69,10.2,56.94,21.77,93.7,21.77s67.01-11.57,93.7-21.77c40.96-15.66,76.33-29.18,114.95,9.44,38.62,38.62,25.1,73.99,9.45,114.95-10.21,26.69-21.77,56.95-21.77,93.7s11.57,67.01,21.77,93.7c15.66,40.96,29.18,76.33-9.45,114.95-18.6,18.6-36.45,25.11-54.52,25.11M345.91,270.99c-17.07,0-33.66,6.23-51.18,23.75-36.43,36.43-24.04,68.83-8.36,109.85,10.35,27.08,22.08,57.77,22.08,95.41s-11.73,68.33-22.08,95.41c-15.68,41.02-28.07,73.43,8.36,109.85,36.42,36.42,68.82,24.04,109.86,8.36,27.08-10.35,57.77-22.08,95.41-22.08s68.33,11.73,95.41,22.08c41.03,15.68,73.43,28.07,109.85-8.36,36.43-36.43,24.04-68.83,8.36-109.85-10.35-27.08-22.08-57.77-22.08-95.41s11.73-68.33,22.08-95.41c15.68-41.03,28.07-73.43-8.36-109.85-36.43-36.43-68.83-24.04-109.85-8.36-27.08,10.35-57.77,22.08-95.41,22.08s-68.33-11.73-95.41-22.08c-21.29-8.14-40.26-15.39-58.68-15.39"/>
    <path class="st1" d="M345.02,758.17c-24.47,0-47.53-7.7-71.51-31.68-43.26-43.26-33.53-83.52-21.21-134.48,6.47-26.78,13.81-57.13,13.81-92.01s-7.34-65.23-13.81-92.01c-12.32-50.96-22.05-91.22,21.21-134.48,43.26-43.26,83.51-33.53,134.48-21.22,26.78,6.47,57.13,13.81,92.01,13.81s65.23-7.34,92.01-13.81c50.96-12.31,91.21-22.05,134.48,21.22,43.26,43.26,33.53,83.52,21.21,134.48-6.47,26.78-13.81,57.13-13.81,92.01s7.34,65.23,13.81,92.01c12.32,50.96,22.05,91.22-21.21,134.48-43.27,43.27-83.52,33.53-134.48,21.22-26.78-6.47-57.13-13.81-92.01-13.81s-65.23,7.34-92.01,13.81c-22.71,5.49-43.3,10.46-62.97,10.46M500,729c35.46,0,66.12,7.41,93.16,13.94,49.47,11.96,88.55,21.4,129.86-19.92,41.32-41.32,31.88-80.4,19.92-129.87-6.54-27.04-13.95-57.7-13.95-93.16s7.41-66.12,13.95-93.16c11.95-49.47,21.4-88.55-19.92-129.87-41.32-41.32-80.4-31.87-129.86-19.92-27.05,6.54-57.7,13.94-93.16,13.94s-66.12-7.41-93.16-13.94c-49.48-11.96-88.55-21.4-129.86,19.92-41.32,41.32-31.88,80.4-19.92,129.87,6.54,27.05,13.95,57.7,13.95,93.16s-7.41,66.12-13.95,93.16c-11.95,49.47-21.4,88.55,19.92,129.87,41.32,41.32,80.39,31.87,129.86,19.92,27.05-6.54,57.7-13.94,93.16-13.94"/>
    <path class="st1" d="M647.12,784.42c-19.49,0-40.02-2.76-62.25-5.74-25.19-3.38-53.74-7.21-84.86-7.21s-59.67,3.83-84.86,7.21c-61.64,8.27-110.32,14.8-159.47-34.35-49.15-49.15-42.61-97.83-34.35-159.47,3.38-25.19,7.21-53.74,7.21-84.87s-3.83-59.67-7.21-84.87c-8.26-61.63-14.8-110.32,34.35-159.46,49.15-49.15,97.83-42.62,159.47-34.35,25.19,3.38,53.74,7.21,84.86,7.21s59.67-3.83,84.86-7.21c61.64-8.26,110.32-14.8,159.47,34.35,49.15,49.15,42.61,97.83,34.35,159.46-3.38,25.19-7.21,53.74-7.21,84.87s3.83,59.67,7.21,84.87c8.26,61.63,14.8,110.32-34.35,159.47-31.42,31.42-62.67,40.09-97.21,40.09M353.3,220.64c-33.6,0-63.88,8.36-94.09,38.57-47.4,47.4-41.01,95-32.93,155.26,3.4,25.34,7.25,54.07,7.25,85.53s-3.85,60.19-7.25,85.53c-8.08,60.26-14.47,107.86,32.93,155.26,47.39,47.4,95,41.01,155.26,32.93,25.34-3.4,54.07-7.25,85.53-7.25s60.19,3.85,85.53,7.25c60.26,8.08,107.87,14.47,155.26-32.93,47.4-47.4,41.01-95,32.93-155.26-3.4-25.34-7.25-54.07-7.25-85.53s3.85-60.19,7.25-85.53c8.08-60.26,14.47-107.86-32.93-155.26-47.39-47.4-95-41.01-155.26-32.93-25.34,3.4-54.07,7.25-85.53,7.25s-60.19-3.85-85.53-7.25c-21.86-2.93-42.05-5.64-61.17-5.64"/>
    <path class="st1" d="M623.77,813.65c-17.48,0-35.78-1.03-55.11-2.11-21.79-1.22-44.31-2.48-68.66-2.48s-46.88,1.26-68.66,2.48c-76.25,4.28-136.49,7.66-193.51-49.36-57.02-57.02-53.64-117.25-49.36-193.51,1.22-21.78,2.48-44.31,2.48-68.66s-1.26-46.88-2.48-68.66c-4.28-76.26-7.66-136.49,49.36-193.51,57.02-57.02,117.25-53.64,193.51-49.36,21.79,1.22,44.31,2.49,68.66,2.49s46.88-1.27,68.66-2.49c76.26-4.28,136.49-7.66,193.51,49.36,57.02,57.02,53.64,117.25,49.36,193.51-1.22,21.78-2.48,44.31-2.48,68.66s1.26,46.88,2.48,68.66c4.28,76.26,7.66,136.49-49.36,193.51-42.56,42.56-86.93,51.47-138.4,51.47M376.6,191.49c-50.46,0-93.87,8.68-135.15,49.96-55.4,55.4-52.08,114.63-47.87,189.61,1.23,21.85,2.5,44.45,2.5,68.95s-1.27,47.09-2.5,68.95c-4.21,74.98-7.53,134.2,47.87,189.61,55.4,55.4,114.61,52.08,189.6,47.87,21.86-1.23,44.46-2.5,68.95-2.5s47.1,1.27,68.95,2.5c74.99,4.21,134.2,7.53,189.61-47.87,55.4-55.4,52.08-114.63,47.87-189.61-1.23-21.86-2.5-44.45-2.5-68.95s1.27-47.09,2.5-68.95c4.21-74.98,7.53-134.2-47.87-189.61-55.4-55.4-114.62-52.08-189.61-47.87-21.86,1.23-44.45,2.49-68.95,2.49s-47.1-1.27-68.95-2.49c-19.11-1.07-37.19-2.09-54.45-2.09"/>
    <path class="st1" d="M500,884.19c-119.84,0-217.87-6.36-297.85-86.34-79.99-79.98-86.34-178.01-86.34-297.85s6.36-217.87,86.34-297.85c79.98-79.98,178.01-86.34,297.85-86.34s217.87,6.36,297.85,86.34c79.99,79.98,86.34,178.01,86.34,297.85s-6.36,217.87-86.34,297.85c-79.98,79.99-178.01,86.34-297.85,86.34M500,121.14c-118.59,0-215.54,6.24-294.08,84.78-78.54,78.53-84.78,175.49-84.78,294.08s6.24,215.54,84.78,294.08c78.54,78.54,175.49,84.78,294.08,84.78s215.54-6.24,294.08-84.78c78.54-78.54,84.78-175.49,84.78-294.08s-6.24-215.54-84.78-294.08c-78.54-78.54-175.49-84.78-294.08-84.78"/>
    <path class="st1" d="M500,921.77c-146.93,0-241.34-31.72-315.69-106.08-74.36-74.35-106.08-168.76-106.08-315.69s31.72-241.34,106.08-315.69c74.35-74.35,168.76-106.08,315.69-106.08s241.34,31.72,315.69,106.08c74.36,74.35,106.08,168.76,106.08,315.69s-31.72,241.34-106.08,315.69c-74.35,74.35-168.76,106.08-315.69,106.08M500,83.68c-145.35,0-238.61,31.25-311.84,104.48-73.24,73.24-104.48,166.5-104.48,311.84s31.25,238.61,104.48,311.84c73.23,73.23,166.49,104.48,311.84,104.48s238.61-31.25,311.84-104.48c73.24-73.24,104.48-166.5,104.48-311.84s-31.25-238.61-104.48-311.84c-73.23-73.23-166.49-104.48-311.84-104.48"/>
    <path class="st1" d="M500,959.34c-137.83,0-250.05-42.33-333.53-125.81-83.48-83.48-125.81-195.7-125.81-333.53s42.33-250.05,125.81-333.53c83.48-83.48,195.7-125.81,333.53-125.81s250.05,42.33,333.53,125.81c83.48,83.48,125.81,195.7,125.81,333.53s-42.33,250.05-125.81,333.53c-83.48,83.48-195.69,125.81-333.53,125.81M500,46.21c-136.31,0-247.2,41.78-329.61,124.18-82.4,82.4-124.18,193.3-124.18,329.61s41.78,247.2,124.18,329.61c82.4,82.4,193.3,124.18,329.61,124.18s247.21-41.78,329.6-124.18c82.4-82.4,124.18-193.3,124.18-329.61s-41.78-247.2-124.18-329.61c-82.4-82.4-193.3-124.18-329.6-124.18"/>
    <path class="st1" d="M500,996.91C226,996.91,3.08,774,3.08,500S226,3.09,500,3.09s496.91,222.91,496.91,496.91-222.91,496.91-496.91,496.91M500,8.75C229.12,8.75,8.75,229.12,8.75,500s220.38,491.25,491.25,491.25,491.25-220.37,491.25-491.25S770.88,8.75,500,8.75"/>
  </g>
</svg>