<?xml version="1.0" encoding="UTF-8"?>
<svg id="Camada_1" xmlns="http://www.w3.org/2000/svg" xmlns:xlink="http://www.w3.org/1999/xlink" version="1.1" viewBox="0 0 1920 1080">
  <!-- Generator: Adobe Illustrator 29.8.2, SVG Export Plug-In . SVG Version: 2.1.1 Build 3)  -->
  <defs>
    <style>
      .st0 {
        fill: none;
      }

      .st1 {
        fill: url(#Gradiente_sem_nome_12);
      }

      .st2 {
        fill: url(#Gradiente_sem_nome_13);
      }

      .st3 {
        fill: url(#Gradiente_sem_nome_11);
      }

      .st4 {
        fill: url(#Gradiente_sem_nome_10);
      }

      .st5 {
        fill: url(#Gradiente_sem_nome_4);
      }

      .st6 {
        fill: url(#Gradiente_sem_nome_2);
      }

      .st7 {
        fill: url(#Gradiente_sem_nome_8);
      }

      .st8 {
        fill: url(#Gradiente_sem_nome_6);
      }

      .st9 {
        fill: url(#Gradiente_sem_nome_7);
      }

      .st10 {
        fill: url(#Gradiente_sem_nome_5);
      }

      .st11 {
        fill: url(#Gradiente_sem_nome_3);
      }

      .st12 {
        fill: url(#Gradiente_sem_nome_9);
      }

      .st13 {
        clip-path: url(#clippath-11);
      }

      .st14 {
        clip-path: url(#clippath-10);
      }

      .st15 {
        clip-path: url(#clippath-1);
      }

      .st16 {
        clip-path: url(#clippath-3);
      }

      .st17 {
        clip-path: url(#clippath-4);
      }

      .st18 {
        clip-path: url(#clippath-2);
      }

      .st19 {
        clip-path: url(#clippath-7);
      }

      .st20 {
        clip-path: url(#clippath-6);
      }

      .st21 {
        clip-path: url(#clippath-9);
      }

      .st22 {
        clip-path: url(#clippath-8);
      }

      .st23 {
        clip-path: url(#clippath-5);
      }

      .st24 {
        fill: #fff;
      }

      .st25 {
        fill: #bf7841;
      }

      .st26 {
        clip-path: url(#clippath);
      }
    </style>
    <clipPath id="clippath">
      <path class="st0" d="M638.03,496.72c12.37-19.15,23.05-35.69,35.26-36.99,5.81-.63,11.91,2.32,18.57,8.98,6.66,6.66,9.6,12.74,8.98,18.57-1.3,12.21-17.84,22.89-36.99,35.25-27.09,17.49-60.8,39.27-60.8,74.99s33.71,57.5,60.8,74.99c19.15,12.37,35.69,23.05,36.98,35.25.62,5.83-2.31,11.91-8.98,18.57-6.66,6.66-12.73,9.6-18.57,8.98-12.21-1.3-22.89-17.84-35.26-36.99-17.49-27.09-39.26-60.8-74.99-60.8s-57.5,33.71-74.99,60.8c-12.37,19.15-23.05,35.69-35.26,36.99-5.84.61-11.91-2.32-18.57-8.98s-9.6-12.74-8.98-18.57c1.3-12.2,17.84-22.89,36.99-35.25,27.09-17.49,60.8-39.27,60.8-74.99s-33.71-57.5-60.8-74.99c-19.15-12.37-35.69-23.05-36.99-35.25-.62-5.83,2.32-11.91,8.98-18.57s12.76-9.6,18.57-8.98c12.21,1.3,22.89,17.84,35.26,36.99,17.49,27.09,39.26,60.8,74.99,60.8s57.5-33.71,74.99-60.8M431.27,465.75c-7.61,7.61-10.94,14.8-10.18,21.97,1.51,14.19,18.82,25.37,38.88,38.32,27.6,17.82,58.89,38.03,58.89,71.48s-31.28,53.66-58.89,71.48c-20.05,12.95-37.36,24.13-38.87,38.32-.76,7.17,2.57,14.36,10.18,21.97,6.9,6.9,13.46,10.28,19.96,10.28.67,0,1.34-.03,2-.11,14.19-1.51,25.38-18.83,38.32-38.88,17.83-27.6,38.03-58.89,71.48-58.89s53.65,31.28,71.48,58.89c12.95,20.05,24.13,37.37,38.32,38.88,7.17.76,14.36-2.57,21.97-10.18s10.94-14.8,10.18-21.97c-1.51-14.19-18.83-25.37-38.88-38.32-27.6-17.82-58.89-38.03-58.89-71.48s31.28-53.66,58.89-71.48c20.05-12.95,37.37-24.13,38.88-38.32.76-7.17-2.57-14.36-10.18-21.97-7.61-7.61-14.79-10.94-21.97-10.18-14.19,1.51-25.38,18.83-38.32,38.88-17.83,27.6-38.03,58.89-71.48,58.89s-53.65-31.28-71.48-58.89c-12.95-20.05-24.13-37.37-38.32-38.88-.67-.07-1.33-.11-2-.11-6.51,0-13.06,3.38-19.96,10.28v.02Z"/>
    </clipPath>
    <linearGradient id="Gradiente_sem_nome_2" data-name="Gradiente sem nome 2" x1="699.99" y1="-285.48" x2="701.48" y2="-285.48" gradientTransform="translate(-132751.21 54910.48) scale(190.25)" gradientUnits="userSpaceOnUse">
      <stop offset="0" stop-color="#dfb47f"/>
      <stop offset=".02" stop-color="#d8a25f"/>
      <stop offset=".05" stop-color="#d49547"/>
      <stop offset=".05" stop-color="#d29346"/>
      <stop offset=".09" stop-color="#ac7637"/>
      <stop offset=".12" stop-color="#8e5f2b"/>
      <stop offset=".16" stop-color="#794f23"/>
      <stop offset=".19" stop-color="#6c451e"/>
      <stop offset=".23" stop-color="#68421d"/>
      <stop offset=".69" stop-color="#68421d"/>
      <stop offset=".73" stop-color="#6b441e"/>
      <stop offset=".78" stop-color="#774d22"/>
      <stop offset=".82" stop-color="#8a5c2a"/>
      <stop offset=".86" stop-color="#a57134"/>
      <stop offset=".9" stop-color="#c78b42"/>
      <stop offset=".92" stop-color="#d49547"/>
      <stop offset=".97" stop-color="#dba96c"/>
      <stop offset="1" stop-color="#dfb47f"/>
    </linearGradient>
    <clipPath id="clippath-1">
      <path class="st0" d="M644.59,471.53c14.89-16.6,27.74-30.93,41.66-31.31,7.36-.23,14.75,3.54,22.65,11.44,7.9,7.89,11.64,15.3,11.44,22.65-.38,13.91-14.71,26.77-31.31,41.66-23.45,21.04-50.03,44.88-50.03,81.56s26.58,60.52,50.03,81.56c16.6,14.89,30.93,27.75,31.31,41.66.2,7.35-3.54,14.75-11.44,22.65s-15.29,11.66-22.65,11.44c-13.91-.38-26.77-14.71-41.66-31.31-21.04-23.45-44.88-50.03-81.56-50.03s-60.52,26.58-81.56,50.03c-14.89,16.6-27.75,30.93-41.66,31.31-7.3.22-14.75-3.54-22.65-11.44-7.89-7.89-11.63-15.3-11.44-22.65.38-13.91,14.71-26.77,31.31-41.66,23.45-21.04,50.03-44.88,50.03-81.56s-26.58-60.52-50.03-81.56c-16.6-14.89-30.93-27.75-31.31-41.66-.2-7.35,3.54-14.76,11.44-22.65,7.9-7.9,15.35-11.66,22.65-11.44,13.91.38,26.77,14.71,41.66,31.31,21.04,23.45,44.88,50.03,81.56,50.03s60.52-26.58,81.56-50.03M686.13,435.94c-15.75.43-29.18,15.4-44.73,32.73-20.44,22.78-43.61,48.61-78.37,48.61s-57.93-25.83-78.37-48.61c-15.55-17.33-28.98-32.3-44.73-32.73-8.57-.22-17.02,3.92-25.8,12.69-8.77,8.77-12.92,17.21-12.69,25.8.43,15.75,15.4,29.18,32.73,44.73,22.78,20.44,48.61,43.61,48.61,78.37s-25.82,57.93-48.61,78.37c-17.33,15.55-32.3,28.98-32.73,44.73-.23,8.58,3.92,17.02,12.69,25.79,8.77,8.77,17.1,12.92,25.8,12.69,15.75-.43,29.18-15.4,44.73-32.73,20.44-22.78,43.6-48.61,78.37-48.61s57.93,25.82,78.37,48.61c15.55,17.33,28.98,32.3,44.73,32.73h.68c8.35,0,16.57-4.16,25.11-12.7,8.77-8.77,12.92-17.21,12.69-25.79-.43-15.75-15.4-29.18-32.73-44.73-22.79-20.44-48.61-43.6-48.61-78.37s25.82-57.93,48.61-78.37c17.33-15.55,32.3-28.98,32.73-44.73.23-8.59-3.92-17.02-12.69-25.8s-16.84-12.7-25.15-12.7h-.64v.02Z"/>
    </clipPath>
    <linearGradient id="Gradiente_sem_nome_3" data-name="Gradiente sem nome 3" x1="700.44" y1="-285.33" x2="701.94" y2="-285.33" gradientTransform="translate(-151180.93 62345.82) scale(216.41)" gradientUnits="userSpaceOnUse">
      <stop offset="0" stop-color="#dfb47f"/>
      <stop offset=".02" stop-color="#d8a25f"/>
      <stop offset=".05" stop-color="#d49547"/>
      <stop offset=".05" stop-color="#d29346"/>
      <stop offset=".09" stop-color="#ac7637"/>
      <stop offset=".12" stop-color="#8e5f2b"/>
      <stop offset=".16" stop-color="#794f23"/>
      <stop offset=".19" stop-color="#6c451e"/>
      <stop offset=".23" stop-color="#68421d"/>
      <stop offset=".69" stop-color="#68421d"/>
      <stop offset=".73" stop-color="#6b441e"/>
      <stop offset=".78" stop-color="#774d22"/>
      <stop offset=".82" stop-color="#8a5c2a"/>
      <stop offset=".86" stop-color="#a57134"/>
      <stop offset=".9" stop-color="#c78b42"/>
      <stop offset=".92" stop-color="#d49547"/>
      <stop offset=".97" stop-color="#dba96c"/>
      <stop offset="1" stop-color="#dfb47f"/>
    </linearGradient>
    <clipPath id="clippath-2">
      <path class="st0" d="M649.85,445.87c28.17-22.54,48.52-38.83,76.09-11.26,27.57,27.57,11.29,47.92-11.26,76.09-18.62,23.27-39.73,49.65-39.73,86.82s21.11,63.54,39.73,86.82c22.54,28.17,38.83,48.52,11.26,76.09-27.57,27.58-47.93,11.28-76.09-11.26-23.27-18.63-49.66-39.73-86.82-39.73s-63.54,21.11-86.82,39.73c-28.17,22.54-48.52,38.83-76.09,11.26s-11.29-47.92,11.26-76.09c18.63-23.27,39.73-49.65,39.73-86.82s-21.11-63.54-39.73-86.82c-22.54-28.17-38.83-48.52-11.26-76.09,10.32-10.33,19.63-14.5,28.72-14.5,15.19,0,29.75,11.66,47.37,25.76,23.28,18.63,49.66,39.73,86.82,39.73s63.54-21.11,86.82-39.73M647.11,442.44c-22.71,18.17-48.45,38.77-84.08,38.77s-61.37-20.6-84.08-38.77c-27.68-22.15-51.58-41.28-81.94-10.93-30.35,30.35-11.22,54.26,10.93,81.94,18.18,22.71,38.77,48.45,38.77,84.08s-20.6,61.37-38.77,84.08c-22.15,27.68-41.28,51.59-10.93,81.94,30.34,30.35,54.25,11.22,81.94-10.93,22.71-18.17,48.45-38.77,84.08-38.77s61.37,20.6,84.08,38.77c17.4,13.93,33.31,26.66,50.26,26.65,10.02,0,20.4-4.45,31.68-15.72,30.35-30.35,11.22-54.25-10.93-81.94-18.18-22.71-38.77-48.45-38.77-84.08s20.6-61.37,38.77-84.08c22.15-27.68,41.28-51.59,10.93-81.94-11.27-11.27-21.66-15.72-31.68-15.72-16.95,0-32.86,12.73-50.26,26.65h0Z"/>
    </clipPath>
    <linearGradient id="Gradiente_sem_nome_4" data-name="Gradiente sem nome 4" x1="700.81" y1="-285.16" x2="702.3" y2="-285.16" gradientTransform="translate(-170188.34 70003.31) scale(243.39)" gradientUnits="userSpaceOnUse">
      <stop offset="0" stop-color="#dfb47f"/>
      <stop offset=".02" stop-color="#d8a25f"/>
      <stop offset=".05" stop-color="#d49547"/>
      <stop offset=".05" stop-color="#d29346"/>
      <stop offset=".09" stop-color="#ac7637"/>
      <stop offset=".12" stop-color="#8e5f2b"/>
      <stop offset=".16" stop-color="#794f23"/>
      <stop offset=".19" stop-color="#6c451e"/>
      <stop offset=".23" stop-color="#68421d"/>
      <stop offset=".69" stop-color="#68421d"/>
      <stop offset=".73" stop-color="#6b441e"/>
      <stop offset=".78" stop-color="#774d22"/>
      <stop offset=".82" stop-color="#8a5c2a"/>
      <stop offset=".86" stop-color="#a57134"/>
      <stop offset=".9" stop-color="#c78b42"/>
      <stop offset=".92" stop-color="#d49547"/>
      <stop offset=".97" stop-color="#dba96c"/>
      <stop offset="1" stop-color="#dfb47f"/>
    </linearGradient>
    <clipPath id="clippath-3">
      <path class="st0" d="M653.4,419.58c32.73-18.46,58.58-33.03,89.59-2.02,31.01,31.01,16.43,56.86-2.02,89.59-14.09,24.99-30.06,53.32-30.06,90.37s15.97,65.38,30.06,90.37c18.45,32.73,33.03,58.59,2.02,89.59-31,31.01-56.86,16.43-89.59-2.02-24.99-14.09-53.31-30.06-90.37-30.06s-65.38,15.97-90.37,30.06c-32.73,18.46-58.59,33.03-89.59,2.02-31.01-31.01-16.43-56.86,2.02-89.59,14.09-24.99,30.06-53.32,30.06-90.37s-15.97-65.38-30.06-90.37c-18.45-32.73-33.03-58.59-2.02-89.59,31.01-31.01,56.86-16.43,89.59,2.02,24.99,14.09,53.32,30.06,90.37,30.06s65.38-15.97,90.37-30.06M379.9,414.38c-33.42,33.42-17.34,61.95,1.29,94.98,13.82,24.51,29.48,52.29,29.48,88.16s-15.66,63.65-29.48,88.16c-18.62,33.03-34.71,61.56-1.29,94.98,33.42,33.42,61.95,17.34,94.98-1.29,24.51-13.82,52.29-29.48,88.16-29.48s63.65,15.66,88.16,29.48c19.09,10.76,36.67,20.68,54.57,20.68,13.07,0,26.3-5.29,40.41-19.39,33.42-33.42,17.34-61.95-1.29-94.98-13.82-24.51-29.48-52.29-29.48-88.16s15.66-63.65,29.48-88.16c18.62-33.03,34.7-61.56,1.29-94.98-33.42-33.42-61.95-17.34-94.98,1.29-24.51,13.82-52.29,29.48-88.16,29.48s-63.65-15.66-88.16-29.48c-19.09-10.76-36.67-20.68-54.57-20.68-13.07,0-26.3,5.29-40.41,19.39h0Z"/>
    </clipPath>
    <linearGradient id="Gradiente_sem_nome_5" data-name="Gradiente sem nome 5" x1="701.11" y1="-285.05" x2="702.6" y2="-285.05" gradientTransform="translate(-189808.66 77913.16) scale(271.24)" gradientUnits="userSpaceOnUse">
      <stop offset="0" stop-color="#dfb47f"/>
      <stop offset=".02" stop-color="#d8a25f"/>
      <stop offset=".05" stop-color="#d49547"/>
      <stop offset=".05" stop-color="#d29346"/>
      <stop offset=".09" stop-color="#ac7637"/>
      <stop offset=".12" stop-color="#8e5f2b"/>
      <stop offset=".16" stop-color="#794f23"/>
      <stop offset=".19" stop-color="#6c451e"/>
      <stop offset=".23" stop-color="#68421d"/>
      <stop offset=".69" stop-color="#68421d"/>
      <stop offset=".73" stop-color="#6b441e"/>
      <stop offset=".78" stop-color="#774d22"/>
      <stop offset=".82" stop-color="#8a5c2a"/>
      <stop offset=".86" stop-color="#a57134"/>
      <stop offset=".9" stop-color="#c78b42"/>
      <stop offset=".92" stop-color="#d49547"/>
      <stop offset=".97" stop-color="#dba96c"/>
      <stop offset="1" stop-color="#dfb47f"/>
    </linearGradient>
    <clipPath id="clippath-4">
      <path class="st0" d="M654.61,392.49c39.37-15.05,70.47-26.94,105.43,8.02s23.08,66.06,8.02,105.44c-9.94,25.99-21.2,55.45-21.2,91.57s11.26,65.58,21.2,91.57c15.05,39.37,26.94,70.48-8.02,105.44s-66.05,23.07-105.43,8.02c-25.99-9.94-55.45-21.2-91.57-21.2s-65.58,11.26-91.57,21.2c-39.38,15.05-70.48,26.94-105.44-8.02s-23.07-66.06-8.02-105.43c9.93-25.99,21.19-55.45,21.19-91.58s-11.26-65.58-21.19-91.58c-15.05-39.37-26.94-70.47,8.02-105.44,16.82-16.82,32.74-22.79,49.12-22.79,17.67,0,35.88,6.96,56.32,14.77,25.99,9.94,55.45,21.2,91.57,21.2s65.58-11.26,91.57-21.2M652.97,388.2c-25.62,9.79-54.65,20.89-89.93,20.89s-64.31-11.1-89.93-20.89c-39.31-15.03-73.26-28.01-110.33,9.06s-24.09,71.02-9.06,110.33c9.79,25.62,20.89,54.66,20.89,89.93s-11.1,64.32-20.89,89.93c-15.03,39.31-28,73.26,9.06,110.33,37.07,37.07,71.02,24.1,110.33,9.07,25.62-9.79,54.65-20.89,89.93-20.89s64.31,11.1,89.93,20.89c20.38,7.79,39.32,15.03,58,15.03,17.35,0,34.48-6.25,52.33-24.1,37.07-37.07,24.09-71.02,9.06-110.33-9.8-25.62-20.9-54.66-20.9-89.93s11.1-64.31,20.9-89.93c15.03-39.31,28.01-73.26-9.06-110.33-17.85-17.85-34.98-24.1-52.33-24.1-18.68,0-37.62,7.24-58,15.03h0Z"/>
    </clipPath>
    <linearGradient id="Gradiente_sem_nome_6" data-name="Gradiente sem nome 6" x1="701.37" y1="-284.95" x2="702.86" y2="-284.95" gradientTransform="translate(-210401.2 86215.97) scale(300.47)" gradientUnits="userSpaceOnUse">
      <stop offset="0" stop-color="#dfb47f"/>
      <stop offset=".02" stop-color="#d8a25f"/>
      <stop offset=".05" stop-color="#d49547"/>
      <stop offset=".05" stop-color="#d29346"/>
      <stop offset=".09" stop-color="#ac7637"/>
      <stop offset=".12" stop-color="#8e5f2b"/>
      <stop offset=".16" stop-color="#794f23"/>
      <stop offset=".19" stop-color="#6c451e"/>
      <stop offset=".23" stop-color="#68421d"/>
      <stop offset=".69" stop-color="#68421d"/>
      <stop offset=".73" stop-color="#6b441e"/>
      <stop offset=".78" stop-color="#774d22"/>
      <stop offset=".82" stop-color="#8a5c2a"/>
      <stop offset=".86" stop-color="#a57134"/>
      <stop offset=".9" stop-color="#c78b42"/>
      <stop offset=".92" stop-color="#d49547"/>
      <stop offset=".97" stop-color="#dba96c"/>
      <stop offset="1" stop-color="#dfb47f"/>
    </linearGradient>
    <clipPath id="clippath-5">
      <path class="st0" d="M348.98,811.58c-39.66-39.66-30.59-77.16-19.12-124.64,6.27-25.96,13.38-55.38,13.38-89.41s-7.11-63.46-13.38-89.41c-11.48-47.48-20.54-84.99,19.12-124.64,39.65-39.66,77.16-30.59,124.64-19.12,25.96,6.27,55.38,13.38,89.42,13.38s63.46-7.11,89.42-13.38c47.48-11.47,84.98-20.54,124.64,19.12,39.66,39.66,30.59,77.16,19.12,124.64-6.28,25.96-13.39,55.38-13.39,89.41s7.11,63.46,13.39,89.41c11.47,47.48,20.54,84.99-19.12,124.64-39.66,39.66-77.16,30.59-124.64,19.12-25.96-6.27-55.38-13.38-89.42-13.38s-63.46,7.11-89.42,13.38c-21.3,5.15-40.58,9.81-58.95,9.81-22.6,0-43.82-7.05-65.69-28.92M651.34,359.77c-25.7,6.21-54.83,13.25-88.31,13.25s-62.61-7.04-88.31-13.25c-48.92-11.82-87.55-21.16-129.08,20.37-41.52,41.52-32.18,80.16-20.36,129.07,6.21,25.7,13.25,54.83,13.25,88.31s-7.04,62.61-13.25,88.31c-11.82,48.92-21.16,87.55,20.36,129.07,23.02,23.02,45.15,30.41,68.64,30.41,18.88,0,38.64-4.78,60.44-10.04,25.7-6.21,54.83-13.25,88.31-13.25s62.61,7.04,88.31,13.25c48.91,11.82,87.55,21.16,129.08-20.36,41.52-41.52,32.18-80.16,20.36-129.07-6.21-25.7-13.25-54.83-13.25-88.31s7.04-62.61,13.25-88.31c11.82-48.91,21.16-87.55-20.36-129.07-23.02-23.02-45.15-30.41-68.64-30.41-18.88,0-38.64,4.78-60.44,10.04h0Z"/>
    </clipPath>
    <linearGradient id="Gradiente_sem_nome_7" data-name="Gradiente sem nome 7" x1="701.59" y1="-284.87" x2="703.09" y2="-284.87" gradientTransform="translate(-232508.41 95132.08) scale(331.85)" gradientUnits="userSpaceOnUse">
      <stop offset="0" stop-color="#dfb47f"/>
      <stop offset=".02" stop-color="#d8a25f"/>
      <stop offset=".05" stop-color="#d49547"/>
      <stop offset=".05" stop-color="#d29346"/>
      <stop offset=".09" stop-color="#ac7637"/>
      <stop offset=".12" stop-color="#8e5f2b"/>
      <stop offset=".16" stop-color="#794f23"/>
      <stop offset=".19" stop-color="#6c451e"/>
      <stop offset=".23" stop-color="#68421d"/>
      <stop offset=".69" stop-color="#68421d"/>
      <stop offset=".73" stop-color="#6b441e"/>
      <stop offset=".78" stop-color="#774d22"/>
      <stop offset=".82" stop-color="#8a5c2a"/>
      <stop offset=".86" stop-color="#a57134"/>
      <stop offset=".9" stop-color="#c78b42"/>
      <stop offset=".92" stop-color="#d49547"/>
      <stop offset=".97" stop-color="#dba96c"/>
      <stop offset="1" stop-color="#dfb47f"/>
    </linearGradient>
    <clipPath id="clippath-6">
      <path class="st0" d="M331.93,828.63c-45.49-45.49-39.36-91.18-31.61-149.02,3.26-24.33,6.96-51.9,6.96-82.09s-3.7-57.77-6.96-82.09c-7.76-57.84-13.89-103.53,31.61-149.02,28.99-28.99,58.06-37.02,90.31-37.02,18.35,0,37.73,2.6,58.71,5.41,24.33,3.26,51.9,6.96,82.09,6.96s57.77-3.7,82.09-6.96c57.84-7.75,103.53-13.88,149.02,31.61s39.36,91.17,31.6,149.02c-3.26,24.33-6.96,51.9-6.96,82.09s3.7,57.77,6.96,82.09c7.76,57.84,13.89,103.53-31.6,149.02s-91.18,39.36-149.02,31.6c-24.32-3.26-51.9-6.96-82.09-6.96s-57.77,3.7-82.09,6.96c-20.98,2.82-40.36,5.41-58.71,5.41-32.24,0-61.32-8.03-90.3-37.02M328.53,363.02c-47.17,47.17-40.9,93.89-32.97,153.05,3.24,24.18,6.92,51.58,6.92,81.45s-3.67,57.28-6.92,81.45c-7.93,59.16-14.2,105.88,32.97,153.05s93.89,40.91,153.05,32.97c24.18-3.24,51.58-6.92,81.45-6.92s57.27,3.67,81.45,6.92c21.33,2.86,41.04,5.5,59.75,5.5,33.16,0,63.14-8.32,93.31-38.48,47.17-47.17,40.9-93.9,32.97-153.05-3.25-24.18-6.92-51.58-6.92-81.45s3.67-57.28,6.92-81.45c7.93-59.16,14.2-105.88-32.97-153.05-47.18-47.17-93.9-40.9-153.06-32.97-24.18,3.24-51.58,6.92-81.45,6.92s-57.28-3.68-81.45-6.92c-21.33-2.86-41.05-5.5-59.75-5.5-33.16,0-63.15,8.32-93.31,38.48h0Z"/>
    </clipPath>
    <linearGradient id="Gradiente_sem_nome_8" data-name="Gradiente sem nome 8" x1="701.79" y1="-284.78" x2="703.28" y2="-284.78" gradientTransform="translate(-256278.24 104709.77) scale(365.59)" gradientUnits="userSpaceOnUse">
      <stop offset="0" stop-color="#dfb47f"/>
      <stop offset=".02" stop-color="#d8a25f"/>
      <stop offset=".05" stop-color="#d49547"/>
      <stop offset=".05" stop-color="#d29346"/>
      <stop offset=".09" stop-color="#ac7637"/>
      <stop offset=".12" stop-color="#8e5f2b"/>
      <stop offset=".16" stop-color="#794f23"/>
      <stop offset=".19" stop-color="#6c451e"/>
      <stop offset=".23" stop-color="#68421d"/>
      <stop offset=".69" stop-color="#68421d"/>
      <stop offset=".73" stop-color="#6b441e"/>
      <stop offset=".78" stop-color="#774d22"/>
      <stop offset=".82" stop-color="#8a5c2a"/>
      <stop offset=".86" stop-color="#a57134"/>
      <stop offset=".9" stop-color="#c78b42"/>
      <stop offset=".92" stop-color="#d49547"/>
      <stop offset=".97" stop-color="#dba96c"/>
      <stop offset="1" stop-color="#dfb47f"/>
    </linearGradient>
    <clipPath id="clippath-7">
      <path class="st0" d="M629.21,303.42c71.97-4.04,128.81-7.23,181.98,45.95,53.17,53.17,49.98,110.02,45.95,181.98-1.18,20.98-2.4,42.66-2.4,66.17s1.22,45.2,2.4,66.17c4.04,71.97,7.23,128.81-45.95,181.98-53.17,53.17-110.01,49.98-181.98,45.95-20.97-1.18-42.67-2.4-66.18-2.4s-45.2,1.22-66.18,2.4c-71.97,4.04-128.81,7.23-181.98-45.95s-49.98-110.02-45.95-181.98c1.18-20.97,2.4-42.66,2.4-66.17s-1.22-45.2-2.4-66.17c-4.04-71.96-7.23-128.81,45.95-181.98,39.63-39.62,81.28-47.95,129.72-47.95,16.56,0,33.92.98,52.26,2,20.97,1.18,42.67,2.4,66.18,2.4s45.2-1.22,66.18-2.4M628.94,298.52c-20.91,1.17-42.53,2.38-65.9,2.38s-44.99-1.21-65.9-2.38c-73.19-4.11-131-7.35-185.72,47.38-54.73,54.73-51.49,112.54-47.38,185.73,1.17,20.91,2.38,42.53,2.38,65.9s-1.21,44.99-2.38,65.9c-4.11,73.19-7.35,131,47.38,185.73s112.54,51.49,185.72,47.38c20.91-1.17,42.53-2.38,65.9-2.38s44.99,1.21,65.9,2.38c18.56,1.04,36.11,2.03,52.89,2.03,49.4,0,91.98-8.55,132.83-49.4,54.73-54.73,51.49-112.54,47.38-185.73-1.17-20.91-2.39-42.53-2.39-65.9s1.21-44.99,2.39-65.9c4.11-73.19,7.35-131-47.38-185.73-40.85-40.85-83.42-49.41-132.83-49.4-16.78,0-34.34.99-52.9,2.03v-.02Z"/>
    </clipPath>
    <linearGradient id="Gradiente_sem_nome_9" data-name="Gradiente sem nome 9" x1="701.97" y1="-284.7" x2="703.46" y2="-284.7" gradientTransform="translate(-282746.31 115378.36) scale(403.16)" gradientUnits="userSpaceOnUse">
      <stop offset="0" stop-color="#dfb47f"/>
      <stop offset=".02" stop-color="#d8a25f"/>
      <stop offset=".05" stop-color="#d49547"/>
      <stop offset=".05" stop-color="#d29346"/>
      <stop offset=".09" stop-color="#ac7637"/>
      <stop offset=".12" stop-color="#8e5f2b"/>
      <stop offset=".16" stop-color="#794f23"/>
      <stop offset=".19" stop-color="#6c451e"/>
      <stop offset=".23" stop-color="#68421d"/>
      <stop offset=".69" stop-color="#68421d"/>
      <stop offset=".73" stop-color="#6b441e"/>
      <stop offset=".78" stop-color="#774d22"/>
      <stop offset=".82" stop-color="#8a5c2a"/>
      <stop offset=".86" stop-color="#a57134"/>
      <stop offset=".9" stop-color="#c78b42"/>
      <stop offset=".92" stop-color="#d49547"/>
      <stop offset=".97" stop-color="#dba96c"/>
      <stop offset="1" stop-color="#dfb47f"/>
    </linearGradient>
    <clipPath id="clippath-8">
      <path class="st0" d="M280.78,879.77c-75.38-75.38-81.37-168.43-81.37-282.25s5.99-206.87,81.37-282.25c75.38-75.38,168.43-81.37,282.25-81.37s206.87,5.99,282.25,81.37,81.37,168.43,81.37,282.25-5.99,206.88-81.37,282.25c-75.38,75.38-168.43,81.37-282.25,81.37s-206.87-5.99-282.25-81.37M277.16,311.65c-76.77,76.77-82.87,170.85-82.87,285.87s6.1,209.11,82.87,285.87c76.77,76.77,170.85,82.87,285.87,82.87s209.11-6.1,285.87-82.87c76.77-76.76,82.87-170.85,82.87-285.87s-6.1-209.11-82.87-285.87c-76.77-76.77-170.85-82.87-285.87-82.87s-209.1,6.1-285.87,82.87h0Z"/>
    </clipPath>
    <linearGradient id="Gradiente_sem_nome_10" data-name="Gradiente sem nome 10" x1="702.3" y1="-284.57" x2="703.79" y2="-284.57" gradientTransform="translate(-346630.37 141131.74) scale(493.84)" gradientUnits="userSpaceOnUse">
      <stop offset="0" stop-color="#dfb47f"/>
      <stop offset=".02" stop-color="#d8a25f"/>
      <stop offset=".05" stop-color="#d49547"/>
      <stop offset=".05" stop-color="#d29346"/>
      <stop offset=".09" stop-color="#ac7637"/>
      <stop offset=".12" stop-color="#8e5f2b"/>
      <stop offset=".16" stop-color="#794f23"/>
      <stop offset=".19" stop-color="#6c451e"/>
      <stop offset=".23" stop-color="#68421d"/>
      <stop offset=".69" stop-color="#68421d"/>
      <stop offset=".73" stop-color="#6b441e"/>
      <stop offset=".78" stop-color="#774d22"/>
      <stop offset=".82" stop-color="#8a5c2a"/>
      <stop offset=".86" stop-color="#a57134"/>
      <stop offset=".9" stop-color="#c78b42"/>
      <stop offset=".92" stop-color="#d49547"/>
      <stop offset=".97" stop-color="#dba96c"/>
      <stop offset="1" stop-color="#dfb47f"/>
    </linearGradient>
    <clipPath id="clippath-9">
      <path class="st0" d="M263.73,896.82c-70.29-70.29-100.28-159.8-100.28-299.3s29.99-229.01,100.28-299.3c70.29-70.29,159.8-100.28,299.3-100.28s229.01,29.99,299.3,100.28c70.29,70.29,100.28,159.8,100.28,299.3s-29.99,229.01-100.28,299.3c-70.29,70.29-159.8,100.28-299.3,100.28s-229.01-29.99-299.3-100.28M260.04,294.53c-71.36,71.36-101.81,161.98-101.81,302.99s30.45,231.63,101.81,302.99c71.36,71.36,161.98,101.81,302.99,101.81s231.63-30.45,302.99-101.81c71.37-71.36,101.81-161.98,101.81-302.99s-30.45-231.63-101.81-302.99-161.97-101.81-302.99-101.81-231.63,30.45-302.99,101.81h0Z"/>
    </clipPath>
    <linearGradient id="Gradiente_sem_nome_11" data-name="Gradiente sem nome 11" x1="702.43" y1="-284.52" x2="703.92" y2="-284.52" gradientTransform="translate(-380657.73 154848.24) scale(542.14)" gradientUnits="userSpaceOnUse">
      <stop offset="0" stop-color="#dfb47f"/>
      <stop offset=".02" stop-color="#d8a25f"/>
      <stop offset=".05" stop-color="#d49547"/>
      <stop offset=".05" stop-color="#d29346"/>
      <stop offset=".09" stop-color="#ac7637"/>
      <stop offset=".12" stop-color="#8e5f2b"/>
      <stop offset=".16" stop-color="#794f23"/>
      <stop offset=".19" stop-color="#6c451e"/>
      <stop offset=".23" stop-color="#68421d"/>
      <stop offset=".69" stop-color="#68421d"/>
      <stop offset=".73" stop-color="#6b441e"/>
      <stop offset=".78" stop-color="#774d22"/>
      <stop offset=".82" stop-color="#8a5c2a"/>
      <stop offset=".86" stop-color="#a57134"/>
      <stop offset=".9" stop-color="#c78b42"/>
      <stop offset=".92" stop-color="#d49547"/>
      <stop offset=".97" stop-color="#dba96c"/>
      <stop offset="1" stop-color="#dfb47f"/>
    </linearGradient>
    <clipPath id="clippath-10">
      <path class="st0" d="M246.68,913.87c-79.09-79.09-119.19-185.52-119.19-316.35s40.1-237.26,119.19-316.35,185.53-119.19,316.35-119.19,237.26,40.1,316.35,119.19,119.19,185.53,119.19,316.35-40.1,237.26-119.19,316.35c-79.09,79.09-185.52,119.19-316.35,119.19s-237.26-40.1-316.35-119.19M242.92,277.4c-80.12,80.13-120.75,187.83-120.75,320.12s40.63,239.99,120.75,320.12c80.12,80.13,187.83,120.75,320.12,120.75s239.99-40.62,320.12-120.75c80.13-80.12,120.75-187.83,120.75-320.12s-40.62-239.99-120.75-320.12-187.82-120.75-320.12-120.75-239.99,40.63-320.12,120.75h0Z"/>
    </clipPath>
    <linearGradient id="Gradiente_sem_nome_12" data-name="Gradiente sem nome 12" x1="702.54" y1="-284.48" x2="704.03" y2="-284.48" gradientTransform="translate(-414678.01 168564.91) scale(590.43)" gradientUnits="userSpaceOnUse">
      <stop offset="0" stop-color="#dfb47f"/>
      <stop offset=".02" stop-color="#d8a25f"/>
      <stop offset=".05" stop-color="#d49547"/>
      <stop offset=".05" stop-color="#d29346"/>
      <stop offset=".09" stop-color="#ac7637"/>
      <stop offset=".12" stop-color="#8e5f2b"/>
      <stop offset=".16" stop-color="#794f23"/>
      <stop offset=".19" stop-color="#6c451e"/>
      <stop offset=".23" stop-color="#68421d"/>
      <stop offset=".69" stop-color="#68421d"/>
      <stop offset=".73" stop-color="#6b441e"/>
      <stop offset=".78" stop-color="#774d22"/>
      <stop offset=".82" stop-color="#8a5c2a"/>
      <stop offset=".86" stop-color="#a57134"/>
      <stop offset=".9" stop-color="#c78b42"/>
      <stop offset=".92" stop-color="#d49547"/>
      <stop offset=".97" stop-color="#dba96c"/>
      <stop offset="1" stop-color="#dfb47f"/>
    </linearGradient>
    <clipPath id="clippath-11">
      <path class="st0" d="M91.54,597.52c0-259.98,211.51-471.5,471.5-471.5s471.5,211.51,471.5,471.5-211.51,471.5-471.5,471.5S91.54,857.51,91.54,597.52M86.11,597.52c0,262.98,213.95,476.93,476.93,476.93s476.93-213.95,476.93-476.93S826.02,120.59,563.04,120.59,86.11,334.54,86.11,597.52Z"/>
    </clipPath>
    <linearGradient id="Gradiente_sem_nome_13" data-name="Gradiente sem nome 13" x1="702.63" y1="-284.45" x2="704.13" y2="-284.45" gradientTransform="translate(-448705.36 182281.44) scale(638.73)" gradientUnits="userSpaceOnUse">
      <stop offset="0" stop-color="#dfb47f"/>
      <stop offset=".02" stop-color="#d8a25f"/>
      <stop offset=".05" stop-color="#d49547"/>
      <stop offset=".05" stop-color="#d29346"/>
      <stop offset=".09" stop-color="#ac7637"/>
      <stop offset=".12" stop-color="#8e5f2b"/>
      <stop offset=".16" stop-color="#794f23"/>
      <stop offset=".19" stop-color="#6c451e"/>
      <stop offset=".23" stop-color="#68421d"/>
      <stop offset=".69" stop-color="#68421d"/>
      <stop offset=".73" stop-color="#6b441e"/>
      <stop offset=".78" stop-color="#774d22"/>
      <stop offset=".82" stop-color="#8a5c2a"/>
      <stop offset=".86" stop-color="#a57134"/>
      <stop offset=".9" stop-color="#c78b42"/>
      <stop offset=".92" stop-color="#d49547"/>
      <stop offset=".97" stop-color="#dba96c"/>
      <stop offset="1" stop-color="#dfb47f"/>
    </linearGradient>
  </defs>
  <g class="st26">
    <rect class="st6" x="420.32" y="454.81" width="285.42" height="285.42"/>
  </g>
  <g class="st15">
    <rect class="st11" x="401.22" y="435.72" width="323.63" height="323.61"/>
  </g>
  <g class="st18">
    <rect class="st5" x="366.67" y="401.16" width="392.73" height="392.72"/>
  </g>
  <g class="st16">
    <rect class="st10" x="346.48" y="380.97" width="433.11" height="433.11"/>
  </g>
  <g class="st17">
    <rect class="st8" x="325.71" y="360.19" width="474.66" height="474.66"/>
  </g>
  <g class="st23">
    <rect class="st9" x="304.13" y="338.62" width="517.81" height="517.81"/>
  </g>
  <g class="st20">
    <rect class="st7" x="281.36" y="315.85" width="563.35" height="563.35"/>
  </g>
  <g class="st19">
    <rect class="st12" x="256.68" y="291.17" width="612.71" height="612.71"/>
  </g>
  <g class="st22">
    <rect class="st4" x="194.29" y="228.78" width="737.48" height="737.49"/>
  </g>
  <g class="st21">
    <rect class="st3" x="158.23" y="192.72" width="809.61" height="809.61"/>
  </g>
  <g class="st14">
    <rect class="st1" x="122.17" y="156.65" width="881.73" height="881.73"/>
  </g>
  <g class="st13">
    <rect class="st2" x="86.11" y="120.59" width="953.86" height="953.86"/>
  </g>
  <g>
    <path class="st24" d="M679.16,380.34V8.93h102.14c26.73,0,46.85,7.42,60.35,22.26,13.51,14.84,20.26,36.54,20.26,65.1v173.89c0,35.17-6.16,62.33-18.47,81.46-12.31,19.13-33.87,28.7-64.68,28.7h-99.61,0ZM753.86,314.71h12.87c13.64,0,20.47-6.61,20.47-19.84V103.26c0-12.38-1.66-20.36-4.96-23.95-3.31-3.59-10.02-5.38-20.15-5.38h-8.23v240.78h0Z"/>
    <path class="st24" d="M888.92,380.34V8.93h71.75v371.41h-71.75Z"/>
    <path class="st24" d="M1066.82,383.71c-53.04,0-79.56-37.98-79.56-113.96V109.59c0-69.36,30.39-104.04,91.16-104.04,25.04,0,44.24,5.03,57.61,15.09,13.36,10.06,22.58,24.73,27.65,44,5.06,19.28,7.6,42.77,7.6,70.48h-72.59v-32.92c0-8.02-1.09-14.74-3.27-20.15-2.18-5.41-6.72-8.12-13.61-8.12-8.58,0-14.24,2.88-16.99,8.65-2.74,5.77-4.12,12.1-4.12,18.99v180.01c0,9.99,1.3,18.12,3.9,24.37,2.6,6.26,7.7,9.39,15.3,9.39s13.12-3.13,15.72-9.39,3.9-14.52,3.9-24.8v-52.97h-19.84v-64.15h90.74v216.31h-29.76l-12.66-31.23c-12.95,23.08-33.34,34.61-61.2,34.61h.02Z"/>
    <path class="st24" d="M1196.39,380.34V8.93h71.75v371.41h-71.75Z"/>
    <path class="st24" d="M1329.55,380.34V80.25h-44.11V8.93h162.49v71.33h-44.11v300.08h-74.28.01Z"/>
    <path class="st24" d="M1458.49,380.34l35.87-371.41h125.98l35.24,371.41h-70.27l-5.28-59.93h-44.74l-4.64,59.93h-72.17.01ZM1540.58,261.11h33.76l-16.25-188.87h-3.38l-14.14,188.87h.01Z"/>
    <path class="st24" d="M1678.38,380.34V8.93h74.28v308.1h76.39v63.31h-150.67Z"/>
  </g>
  <path class="st25" d="M891.44,813.01c-15.9-20.35-20.71-48.28-14.45-83.81l36.12-204.86c7.78-44.14,22.45-77.42,43.99-99.84s51.11-33.63,88.7-33.63c32.76,0,57.56,8.97,74.41,26.9,16.83,17.94,22.28,43.8,16.32,77.6l-13.5,76.56h-88.46l11.59-65.7c2.25-12.75,2.25-21.55,0-26.38-2.25-4.82-7.18-7.24-14.76-7.24s-13.86,2.77-17.75,8.28c-3.91,5.52-6.8,13.63-8.69,24.31l-39.32,222.97c-2.07,11.72-1.85,20.26.66,25.61,2.5,5.35,7.2,8.02,14.11,8.02,13.79,0,22.67-11.2,26.62-33.62l14.14-80.19h89.5l-14.78,83.81c-13.14,74.49-57.13,111.74-131.96,111.74-32.42,0-56.59-10.16-72.48-30.52M1106.39,839.4l78.36-444.38h88.98l-65.04,368.86h91.57l-13.32,75.53h-180.55,0ZM1337.98,812.5c-14.12-20.7-17.58-51.39-10.41-92.08l57.38-325.4h86.39l-56.74,321.78c-2.5,14.15-3.07,25.18-1.7,33.11,1.36,7.93,6.52,11.9,15.49,11.9s15.51-3.88,19.64-11.64c4.12-7.76,7.47-18.88,10.02-33.37l56.74-321.78h86.39l-57.38,325.4c-7.18,40.7-21.47,71.39-42.88,92.08s-50.4,31.04-86.95,31.04-61.9-10.35-76.01-31.04M1635.34,395.02h120.54c32.42,0,54.55,7.94,66.42,23.8,11.86,15.87,14.63,41.74,8.3,77.6l-3.46,19.66c-7.48,42.42-27.13,67.77-58.93,76.05,17.77,4.83,28.9,16.03,33.39,33.62,4.48,17.59,4.17,40.87-.93,69.84-8.33,47.26-21.71,83.03-40.14,107.35-18.43,24.32-46.09,36.47-83,36.47h-120.53l78.36-444.38h-.02ZM1706.96,728.18l9.76-55.36c2.37-13.45,2.18-23.62-.57-30.52-2.75-6.89-9.13-10.35-19.13-10.35h-16.56l-22.71,128.82,8.7.52c23.1,0,36.6-11.03,40.5-33.11M1710.89,562.11c7.58,0,13.26-2.84,17.02-8.54,3.76-5.69,6.56-13.71,8.38-24.06l7.84-44.49c2.56-14.49-2.56-21.73-15.31-21.73h-18.62l-17.42,98.81h18.11Z"/>
</svg>